<?xml version="1.0" standalone="no"?><!DOCTYPE svg PUBLIC "-//W3C//DTD SVG 1.1//EN" "http://www.w3.org/Graphics/SVG/1.1/DTD/svg11.dtd"><svg width="100%" height="100%" viewBox="0 0 363 363" version="1.1" xmlns="http://www.w3.org/2000/svg" xmlns:xlink="http://www.w3.org/1999/xlink" xml:space="preserve" style="fill-rule:evenodd;clip-rule:evenodd;stroke-linejoin:round;stroke-miterlimit:1.41421;"><path id="pointer" d="M196.32,0l0,73.99l91.37,0l0,92.21l74.68,0l0,-166.2l-166.05,0Z" style="fill:#5ac1ee;fill-rule:nonzero;"/><path id="curve" d="M285.46,216.67c-15.719,42.874 -56.767,71.545 -102.432,71.545c-59.851,0 -109.1,-49.25 -109.1,-109.1c0,-45.784 28.819,-86.914 71.852,-102.545l0,-76.57c-61.7,13.12 -115.61,57.94 -135.84,118.71c-6.429,19.505 -9.783,39.893 -9.94,60.43c0,101.2 82,183.23 183.07,183.23c73.18,0 151.82,-49.29 173.83,-121.48c2.38,-7.937 4.204,-16.03 5.46,-24.22l-76.9,0Z" style="fill:#263238;fill-rule:nonzero;"/></svg>